# xmcd
#
# Track frame offsets:
#	182
#	12780
#	22572
#	33070
#	43602
#	52192
#	62127
#	73852
#	85022
#	100160
#	110375
#	122667
#	133322
#	142520
#	154690
#	165175
#	175075
#	186755
#	196512
#	210335
#	222487
#	236222
#	250180
#	258932
#	269062
#	278057
#
# Disc length: 3795 seconds
#
# Revision: 3
# Processed by: cddbd v1.5.2PL0 Copyright (c) Steve Scherf et al.
# Submitted via: audiograbber 1.83.01
#
DISCID=5e0ed11a
DTITLE=Various Artist - Country Classics (26 Great Country Songs, Vol. 2)
DYEAR=1900
DGENRE=Country
TTITLE0=Jean Sheppard - A satisfied mind
TTITLE1=Johnny Carver - I start thinkin' about you
TTITLE2=George Hamilton IV - Early Morning Rain
TTITLE3=Dave Dudley - My world is comin' down
TTITLE4=Del Reeves - Goodtime Charlie
TTITLE5=Jean Sheppard - If teardrops were silver
TTITLE6=Johnny Carver - You've got dirt on your lily white hands
TTITLE7=George Hamilton IV - If you don't know I ain't gonna tell ya
TTITLE8=Dave Dudley - Have it your way
TTITLE9=Del Reeves - Lookin' at the world through a windshield
TTITLE10=Jean Sheppard - Travel on
TTITLE11=Johnny Carver - Joy to the world
TTITLE12=George Hamilton IV - Write me a picture
TTITLE13=Jean Sheppard - At the time
TTITLE14=Johnny Carver - Help me make it through the night
TTITLE15=George Hamilton IV - Walking the floor over you
TTITLE16=Dave Dudley - Truck drivin' son of a gun
TTITLE17=Del Reeves - Wild blood
TTITLE18=Jean Sheppard - Are you sincere
TTITLE19=Johnny Carver - It's a beautiful day
TTITLE20=George Hamilton IV - You better not do that
TTITLE21=Dave Dudley - If it feels good, do it
TTITLE22=Del Reeves - Indian burial ground
TTITLE23=Jean Sheppard - Snowbird
TTITLE24=George Hamilton IV - It's my time
TTITLE25=Del Reeves - Eyes, don't come crying to me
EXTD=
EXTT0=
EXTT1=
EXTT2=
EXTT3=
EXTT4=
EXTT5=
EXTT6=
EXTT7=
EXTT8=
EXTT9=
EXTT10=
EXTT11=
EXTT12=
EXTT13=
EXTT14=
EXTT15=
EXTT16=
EXTT17=
EXTT18=
EXTT19=
EXTT20=
EXTT21=
EXTT22=
EXTT23=
EXTT24=
EXTT25=
PLAYORDER=
